<svg width="138" height="30" viewBox="0 0 138 30" fill="none" xmlns="http://www.w3.org/2000/svg">
<path d="M0.00106193 0V9.3501H1.61209L1.61209 1.61103H20.9734V18.7084C20.9734 19.9798 20.723 21.2387 20.2365 22.4132C19.75 23.5878 19.0369 24.655 18.1379 25.554C17.2389 26.4529 16.1717 27.166 14.9972 27.6526C13.8226 28.139 12.5637 28.3895 11.2924 28.3895C10.021 28.3895 8.76213 28.139 7.58758 27.6526C6.41302 27.166 5.34578 26.4529 4.44682 25.554C3.54786 24.655 2.83475 23.5878 2.34823 22.4132C1.86171 21.2387 1.6113 19.9798 1.6113 18.7084V17.3689H7.68249V18.7084C7.68249 19.6654 8.06265 20.5832 8.73934 21.2599C9.416 21.9366 10.3338 22.3167 11.2908 22.3167C12.2478 22.3167 13.1655 21.9366 13.8422 21.2599C14.5189 20.5832 14.8991 19.6654 14.8991 18.7084V7.68355H7.68328V9.3501H13.2349V18.7084C13.2349 19.2237 13.0302 19.7178 12.6659 20.0822C12.3015 20.4465 11.8074 20.6512 11.2921 20.6512C10.7768 20.6512 10.2827 20.4465 9.91833 20.0822C9.55399 19.7178 9.3493 19.2237 9.3493 18.7084V15.701H1.61103H0V18.7076C0 21.7025 1.18972 24.5747 3.30741 26.6924C5.42513 28.8103 8.29733 30 11.2922 30C14.2871 30 17.1593 28.8103 19.2771 26.6924C21.3948 24.5747 22.5845 21.7025 22.5845 18.7076V0H0.00106193Z" fill="#231D4F"/>
<path d="M11.2945 23.7036C9.96948 23.7026 8.69898 23.1759 7.76187 22.2392C6.82474 21.3024 6.29752 20.0322 6.2959 18.7072H4.63227C4.63227 20.4738 5.33406 22.1681 6.58328 23.4173C7.83248 24.6665 9.52678 25.3683 11.2934 25.3683C13.0601 25.3683 14.7544 24.6665 16.0036 23.4173C17.2528 22.1681 17.9546 20.4738 17.9546 18.7072V4.62891H2.68769V9.34805H4.35131V6.29333H16.2885V18.7061C16.2877 20.0307 15.7614 21.3008 14.8251 22.2377C13.8888 23.1747 12.619 23.7019 11.2945 23.7036Z" fill="#BB6BD9"/>
<path d="M40.3685 22.9929C39.7898 23.8329 39.0898 24.3929 38.2685 24.6729C37.4658 24.9342 36.5791 24.9902 35.6085 24.8409C34.6378 24.7102 33.6298 24.4582 32.5845 24.0849L33.5085 20.8089C34.1058 21.0515 34.6938 21.2289 35.2725 21.3409C35.8698 21.4342 36.3925 21.4435 36.8405 21.3689C37.4938 21.2755 37.8951 20.8462 38.0445 20.0809C38.1938 19.3155 38.2685 18.2982 38.2685 17.0289V5.18488H41.5445V17.0289C41.5445 18.3729 41.4605 19.5395 41.2925 20.5289C41.1245 21.5182 40.8165 22.3395 40.3685 22.9929Z" fill="#231D4F"/>
<path d="M48.3874 24.9249C46.9687 24.8502 45.8954 24.4489 45.1674 23.7209C44.4394 22.9742 44.0754 21.9475 44.0754 20.6409C44.0754 19.6889 44.3181 18.8769 44.8034 18.2049C45.2887 17.5142 45.9327 16.9729 46.7354 16.5809C47.5381 16.1889 48.4247 15.9462 49.3954 15.8529C50.3847 15.7595 51.3834 15.8249 52.3914 16.0489V15.1809C52.3914 14.5835 52.1487 14.1542 51.6634 13.8929C51.1781 13.6315 50.5807 13.5102 49.8714 13.5289C49.1807 13.5475 48.4807 13.6875 47.7714 13.9489C47.0807 14.1915 46.5207 14.5462 46.0914 15.0129L44.2154 12.9689C44.9247 12.2782 45.7647 11.7369 46.7354 11.3449C47.7061 10.9529 48.7047 10.7289 49.7314 10.6729C50.7767 10.6169 51.7567 10.7382 52.6714 11.0369C53.6047 11.3355 54.3701 11.8209 54.9674 12.4929C55.4341 13.0155 55.6954 13.7062 55.7514 14.5649C55.8074 15.4235 55.8354 16.3662 55.8354 17.3929V24.7849H52.4194V23.4969C51.8407 24.0382 51.1967 24.4209 50.4874 24.6449C49.7781 24.8502 49.0781 24.9435 48.3874 24.9249ZM52.3074 20.8369V18.4289C50.3661 18.2795 49.0127 18.4009 48.2474 18.7929C47.5007 19.1849 47.1274 19.7915 47.1274 20.6129C47.1274 21.1355 47.3047 21.5182 47.6594 21.7609C48.0327 21.9849 48.4901 22.0969 49.0314 22.0969C49.5914 22.0782 50.1607 21.9662 50.7394 21.7609C51.3367 21.5369 51.8594 21.2289 52.3074 20.8369Z" fill="#231D4F"/>
<path d="M61.9048 24.5329C61.0835 24.1595 60.4115 23.6182 59.8888 22.9089C59.3662 22.1809 58.9742 21.3502 58.7128 20.4169C58.4702 19.4835 58.3488 18.5222 58.3488 17.5329C58.3488 16.2449 58.5822 15.0782 59.0488 14.0329C59.5155 12.9875 60.1968 12.1569 61.0928 11.5409C62.0075 10.9062 63.1275 10.5889 64.4528 10.5889C64.8822 10.5889 65.3768 10.6355 65.9368 10.7289C66.5155 10.8222 66.9822 10.9995 67.3368 11.2609V5.18488H70.6968V24.7849H67.3368V23.6649C67.0195 24.0382 66.5342 24.3369 65.8808 24.5609C65.2275 24.7662 64.5368 24.8689 63.8088 24.8689C63.0995 24.8875 62.4648 24.7755 61.9048 24.5329ZM67.3368 20.8649V14.4249C66.3662 14.0329 65.4515 13.9022 64.5928 14.0329C63.7528 14.1635 63.0622 14.5275 62.5208 15.1249C61.9982 15.7035 61.7368 16.5062 61.7368 17.5329C61.7368 18.7462 61.9982 19.7075 62.5208 20.4169C63.0435 21.1075 63.7248 21.5089 64.5648 21.6209C65.4235 21.7142 66.3475 21.4622 67.3368 20.8649Z" fill="#231D4F"/>
<path d="M96.253 10.7849L91.493 24.7849H87.405L84.465 15.3489L81.553 24.7849H77.465L72.677 10.7849H76.457L79.481 21.0889L82.729 10.7849H86.229L89.477 21.0609L92.473 10.7849H96.253Z" fill="#231D4F"/>
<path d="M101.407 24.9249C99.9883 24.8502 98.9149 24.4489 98.1869 23.7209C97.4589 22.9742 97.0949 21.9475 97.0949 20.6409C97.0949 19.6889 97.3376 18.8769 97.8229 18.2049C98.3083 17.5142 98.9523 16.9729 99.7549 16.5809C100.558 16.1889 101.444 15.9462 102.415 15.8529C103.404 15.7595 104.403 15.8249 105.411 16.0489V15.1809C105.411 14.5835 105.168 14.1542 104.683 13.8929C104.198 13.6315 103.6 13.5102 102.891 13.5289C102.2 13.5475 101.5 13.6875 100.791 13.9489C100.1 14.1915 99.5403 14.5462 99.1109 15.0129L97.2349 12.9689C97.9443 12.2782 98.7843 11.7369 99.7549 11.3449C100.726 10.9529 101.724 10.7289 102.751 10.6729C103.796 10.6169 104.776 10.7382 105.691 11.0369C106.624 11.3355 107.39 11.8209 107.987 12.4929C108.454 13.0155 108.715 13.7062 108.771 14.5649C108.827 15.4235 108.855 16.3662 108.855 17.3929V24.7849H105.439V23.4969C104.86 24.0382 104.216 24.4209 103.507 24.6449C102.798 24.8502 102.098 24.9435 101.407 24.9249ZM105.327 20.8369V18.4289C103.386 18.2795 102.032 18.4009 101.267 18.7929C100.52 19.1849 100.147 19.7915 100.147 20.6129C100.147 21.1355 100.324 21.5182 100.679 21.7609C101.052 21.9849 101.51 22.0969 102.051 22.0969C102.611 22.0782 103.18 21.9662 103.759 21.7609C104.356 21.5369 104.879 21.2289 105.327 20.8369Z" fill="#231D4F"/>
<path d="M115.008 24.7849H111.648V5.18488H115.008V24.7849Z" fill="#231D4F"/>
<path d="M119.845 9.13288C119.266 9.13288 118.781 8.93688 118.389 8.54488C117.997 8.15288 117.801 7.66754 117.801 7.08888C117.801 6.52888 117.997 6.05288 118.389 5.66088C118.781 5.26888 119.266 5.07288 119.845 5.07288C120.405 5.07288 120.881 5.26888 121.273 5.66088C121.665 6.05288 121.861 6.52888 121.861 7.08888C121.861 7.66754 121.665 8.15288 121.273 8.54488C120.881 8.93688 120.405 9.13288 119.845 9.13288ZM121.385 24.7849H118.305V10.7849H121.385V24.7849Z" fill="#231D4F"/>
<path d="M137.264 24.7849H133.904V16.6089C133.904 15.8435 133.755 15.2742 133.456 14.9009C133.176 14.5089 132.821 14.2475 132.392 14.1169C131.981 13.9862 131.58 13.9209 131.188 13.9209C130.815 13.9209 130.376 13.9862 129.872 14.1169C129.387 14.2475 128.957 14.5089 128.584 14.9009C128.211 15.2742 128.024 15.8435 128.024 16.6089V24.7849H124.664V10.7849H128.024V11.7929C128.341 11.3635 128.836 11.0649 129.508 10.8969C130.18 10.7102 130.824 10.6169 131.44 10.6169C132.635 10.6169 133.661 10.8689 134.52 11.3729C135.397 11.8769 136.069 12.5769 136.536 13.4729C137.021 14.3689 137.264 15.4142 137.264 16.6089V24.7849Z" fill="#231D4F"/>
</svg>
